<mxfile host="app.diagrams.net" modified="2023-07-11T09:03:42.492Z" agent="Mozilla/5.0 (Windows NT 10.0; Win64; x64; rv:109.0) Gecko/20100101 Firefox/115.0" etag="r7YcLNFfjHzJAOiMtTWR" version="21.6.1" type="device">
  <diagram id="C5RBs43oDa-KdzZeNtuy" name="Page-1">
    <mxGraphModel dx="3088" dy="1951" grid="1" gridSize="10" guides="1" tooltips="1" connect="1" arrows="1" fold="1" page="1" pageScale="1" pageWidth="827" pageHeight="1169" math="0" shadow="0">
      <root>
        <mxCell id="WIyWlLk6GJQsqaUBKTNV-0" />
        <mxCell id="WIyWlLk6GJQsqaUBKTNV-1" parent="WIyWlLk6GJQsqaUBKTNV-0" />
        <mxCell id="NIv_Thovjby-iMn4ZX4f-10" value="" style="rounded=1;whiteSpace=wrap;html=1;fillColor=#f5f5f5;strokeColor=#666666;glass=0;fontColor=#333333;arcSize=3;" parent="WIyWlLk6GJQsqaUBKTNV-1" vertex="1">
          <mxGeometry x="-1130" y="-340" width="1120" height="1260" as="geometry" />
        </mxCell>
        <mxCell id="NIv_Thovjby-iMn4ZX4f-8" value="" style="rounded=1;whiteSpace=wrap;html=1;fillColor=#e1d5e7;strokeColor=#9673a6;glass=0;arcSize=10;" parent="WIyWlLk6GJQsqaUBKTNV-1" vertex="1">
          <mxGeometry x="-1130" y="940" width="1120" height="320" as="geometry" />
        </mxCell>
        <mxCell id="WIyWlLk6GJQsqaUBKTNV-2" value="" style="rounded=0;html=1;jettySize=auto;orthogonalLoop=1;fontSize=11;endArrow=block;endFill=0;endSize=8;strokeWidth=1;shadow=0;labelBackgroundColor=none;edgeStyle=orthogonalEdgeStyle;fontFamily=Lucida Console;entryX=0.5;entryY=0;entryDx=0;entryDy=0;" parent="WIyWlLk6GJQsqaUBKTNV-1" source="WIyWlLk6GJQsqaUBKTNV-3" target="WIyWlLk6GJQsqaUBKTNV-6" edge="1">
          <mxGeometry relative="1" as="geometry">
            <mxPoint x="80" y="-40" as="targetPoint" />
          </mxGeometry>
        </mxCell>
        <mxCell id="WIyWlLk6GJQsqaUBKTNV-3" value="The monitoring engine executes a check" style="rounded=1;whiteSpace=wrap;html=1;fontSize=12;glass=0;strokeWidth=1;shadow=0;fontFamily=Lucida Console;fillColor=#fff2cc;strokeColor=#d6b656;" parent="WIyWlLk6GJQsqaUBKTNV-1" vertex="1">
          <mxGeometry x="-390.62" y="-240" width="137.5" height="40" as="geometry" />
        </mxCell>
        <mxCell id="WIyWlLk6GJQsqaUBKTNV-6" value="&lt;div&gt;&lt;br&gt;&lt;/div&gt;&lt;div&gt;modpd NEB module checks if obsessing is enabled for this host/service&lt;/div&gt;" style="rhombus;whiteSpace=wrap;html=1;shadow=0;fontFamily=Lucida Console;fontSize=12;align=center;strokeWidth=1;spacing=6;spacingTop=-4;fillColor=#ffe6cc;strokeColor=#d79b00;" parent="WIyWlLk6GJQsqaUBKTNV-1" vertex="1">
          <mxGeometry x="-423.74" y="-138.12" width="203.75" height="176.25" as="geometry" />
        </mxCell>
        <mxCell id="OIr_SDyy3lZdY-E9c7T--3" value="FIFO named_pipe_filename" style="shape=cylinder;whiteSpace=wrap;html=1;boundedLbl=1;backgroundOutline=1;fontFamily=Lucida Console;fillColor=#d5e8d4;strokeColor=#82b366;" parent="WIyWlLk6GJQsqaUBKTNV-1" vertex="1">
          <mxGeometry x="-396.87" y="200" width="150" height="165" as="geometry" />
        </mxCell>
        <mxCell id="OIr_SDyy3lZdY-E9c7T--19" value="modpd reads data" style="rounded=1;whiteSpace=wrap;html=1;fontSize=12;glass=0;strokeWidth=1;shadow=0;fontFamily=Lucida Console;fillColor=#d5e8d4;strokeColor=#82b366;" parent="WIyWlLk6GJQsqaUBKTNV-1" vertex="1">
          <mxGeometry x="-388.12" y="450" width="132.5" height="40" as="geometry" />
        </mxCell>
        <mxCell id="OIr_SDyy3lZdY-E9c7T--25" value="modpd NEB module writes data" style="rounded=1;whiteSpace=wrap;html=1;fontSize=12;glass=0;strokeWidth=1;shadow=0;fontFamily=Lucida Console;fillColor=#ffe6cc;strokeColor=#d79b00;" parent="WIyWlLk6GJQsqaUBKTNV-1" vertex="1">
          <mxGeometry x="-387.49" y="110" width="131.25" height="40" as="geometry" />
        </mxCell>
        <mxCell id="e-dImMtRrVpYIfOJgrRO-0" value="modpd NEB part" style="text;strokeColor=#d79b00;fillColor=#ffe6cc;html=1;fontSize=24;fontStyle=1;verticalAlign=middle;align=center;fontFamily=Lucida Console;" parent="WIyWlLk6GJQsqaUBKTNV-1" vertex="1">
          <mxGeometry x="-735.38" y="-41" width="220" height="40" as="geometry" />
        </mxCell>
        <mxCell id="e-dImMtRrVpYIfOJgrRO-1" value="&lt;font&gt;modpd daemon part&lt;/font&gt;" style="text;strokeColor=#82b366;fillColor=#d5e8d4;html=1;fontSize=24;fontStyle=1;verticalAlign=middle;align=center;fontFamily=Lucida Console;" parent="WIyWlLk6GJQsqaUBKTNV-1" vertex="1">
          <mxGeometry x="-760.38" y="480" width="270" height="40" as="geometry" />
        </mxCell>
        <mxCell id="e-dImMtRrVpYIfOJgrRO-15" value="" style="rounded=0;html=1;jettySize=auto;orthogonalLoop=1;fontSize=11;endArrow=block;endFill=0;endSize=8;strokeWidth=1;shadow=0;labelBackgroundColor=none;edgeStyle=orthogonalEdgeStyle;exitX=0.5;exitY=1;exitDx=0;exitDy=0;fontFamily=Lucida Console;entryX=0.5;entryY=0;entryDx=0;entryDy=0;" parent="WIyWlLk6GJQsqaUBKTNV-1" source="OIr_SDyy3lZdY-E9c7T--25" target="OIr_SDyy3lZdY-E9c7T--3" edge="1">
          <mxGeometry relative="1" as="geometry">
            <mxPoint x="450" y="-40" as="sourcePoint" />
            <mxPoint x="501.25" y="-40" as="targetPoint" />
          </mxGeometry>
        </mxCell>
        <mxCell id="e-dImMtRrVpYIfOJgrRO-18" value="Yes" style="rounded=0;html=1;jettySize=auto;orthogonalLoop=1;fontSize=11;endArrow=block;endFill=0;endSize=8;strokeWidth=1;shadow=0;labelBackgroundColor=none;edgeStyle=orthogonalEdgeStyle;fontFamily=Lucida Console;entryX=0.5;entryY=0;entryDx=0;entryDy=0;" parent="WIyWlLk6GJQsqaUBKTNV-1" source="e-dImMtRrVpYIfOJgrRO-30" target="e-dImMtRrVpYIfOJgrRO-19" edge="1">
          <mxGeometry y="20" relative="1" as="geometry">
            <mxPoint as="offset" />
            <mxPoint x="-321" y="740" as="sourcePoint" />
            <mxPoint x="1130" y="-40" as="targetPoint" />
            <Array as="points" />
          </mxGeometry>
        </mxCell>
        <mxCell id="e-dImMtRrVpYIfOJgrRO-19" value="&lt;div&gt;&lt;br&gt;&lt;/div&gt;&lt;div&gt;Send the received datasets as bulk via NSCA/NRDP/Icinga2 API to the obsessing_host&lt;/div&gt;&lt;div&gt;&lt;br&gt;&lt;/div&gt;" style="rounded=1;whiteSpace=wrap;html=1;fontSize=12;glass=0;strokeWidth=1;shadow=0;fontFamily=Lucida Console;fillColor=#d5e8d4;strokeColor=#82b366;" parent="WIyWlLk6GJQsqaUBKTNV-1" vertex="1">
          <mxGeometry x="-462.49" y="830" width="281.25" height="50" as="geometry" />
        </mxCell>
        <mxCell id="e-dImMtRrVpYIfOJgrRO-26" value="" style="rounded=0;html=1;jettySize=auto;orthogonalLoop=1;fontSize=11;endArrow=block;endFill=0;endSize=8;strokeWidth=1;shadow=0;labelBackgroundColor=none;edgeStyle=orthogonalEdgeStyle;exitX=0.5;exitY=1;exitDx=0;exitDy=0;fontFamily=Lucida Console;entryX=0.5;entryY=0;entryDx=0;entryDy=0;" parent="WIyWlLk6GJQsqaUBKTNV-1" source="OIr_SDyy3lZdY-E9c7T--19" target="e-dImMtRrVpYIfOJgrRO-30" edge="1">
          <mxGeometry relative="1" as="geometry">
            <mxPoint x="-280" y="530" as="sourcePoint" />
            <mxPoint x="-218.75" y="530" as="targetPoint" />
          </mxGeometry>
        </mxCell>
        <mxCell id="e-dImMtRrVpYIfOJgrRO-27" value="Monitoring Engine" style="text;strokeColor=#d6b656;fillColor=#fff2cc;html=1;fontSize=24;fontStyle=1;verticalAlign=middle;align=center;fontFamily=Lucida Console;" parent="WIyWlLk6GJQsqaUBKTNV-1" vertex="1">
          <mxGeometry x="-760.38" y="-240" width="270" height="40" as="geometry" />
        </mxCell>
        <mxCell id="e-dImMtRrVpYIfOJgrRO-30" value="&lt;div&gt;&lt;br&gt;&lt;/div&gt;&lt;div&gt;&lt;div&gt;modpd has received n number of datasets or reached interval x&lt;/div&gt;&lt;/div&gt;" style="rhombus;whiteSpace=wrap;html=1;shadow=0;fontFamily=Lucida Console;fontSize=12;align=center;strokeWidth=1;spacing=6;spacingTop=-4;fillColor=#d5e8d4;strokeColor=#82b366;aspect=fixed;" parent="WIyWlLk6GJQsqaUBKTNV-1" vertex="1">
          <mxGeometry x="-423.74" y="567.5" width="203.75" height="190" as="geometry" />
        </mxCell>
        <mxCell id="e-dImMtRrVpYIfOJgrRO-43" value="" style="rounded=0;html=1;jettySize=auto;orthogonalLoop=1;fontSize=11;endArrow=block;endFill=0;endSize=8;strokeWidth=1;shadow=0;labelBackgroundColor=none;edgeStyle=orthogonalEdgeStyle;exitX=0.5;exitY=0;exitDx=0;exitDy=0;fontFamily=Lucida Console;entryX=0.5;entryY=1;entryDx=0;entryDy=0;" parent="WIyWlLk6GJQsqaUBKTNV-1" source="OIr_SDyy3lZdY-E9c7T--19" target="OIr_SDyy3lZdY-E9c7T--3" edge="1">
          <mxGeometry relative="1" as="geometry">
            <mxPoint x="620" y="80" as="sourcePoint" />
            <mxPoint x="681.25" y="80" as="targetPoint" />
          </mxGeometry>
        </mxCell>
        <mxCell id="L61zhgRRAvzZzF-HI6Hs-0" value="Yes" style="rounded=0;html=1;jettySize=auto;orthogonalLoop=1;fontSize=11;endArrow=block;endFill=0;endSize=8;strokeWidth=1;shadow=0;labelBackgroundColor=none;edgeStyle=orthogonalEdgeStyle;fontFamily=Lucida Console;exitX=0.5;exitY=1;exitDx=0;exitDy=0;entryX=0.5;entryY=0;entryDx=0;entryDy=0;" parent="WIyWlLk6GJQsqaUBKTNV-1" source="WIyWlLk6GJQsqaUBKTNV-6" target="OIr_SDyy3lZdY-E9c7T--25" edge="1">
          <mxGeometry y="20" relative="1" as="geometry">
            <mxPoint as="offset" />
            <mxPoint x="-321" y="80" as="targetPoint" />
            <mxPoint x="-360" y="50" as="sourcePoint" />
            <Array as="points">
              <mxPoint x="-322" y="60" />
              <mxPoint x="-321" y="60" />
            </Array>
          </mxGeometry>
        </mxCell>
        <mxCell id="L61zhgRRAvzZzF-HI6Hs-1" value="No" style="edgeStyle=orthogonalEdgeStyle;rounded=0;html=1;jettySize=auto;orthogonalLoop=1;fontSize=11;endArrow=block;endFill=0;endSize=8;strokeWidth=1;shadow=0;labelBackgroundColor=none;fontFamily=Lucida Console;entryX=0;entryY=0.5;entryDx=0;entryDy=0;exitX=1;exitY=0.5;exitDx=0;exitDy=0;" parent="WIyWlLk6GJQsqaUBKTNV-1" source="WIyWlLk6GJQsqaUBKTNV-6" target="L61zhgRRAvzZzF-HI6Hs-2" edge="1">
          <mxGeometry y="10" relative="1" as="geometry">
            <mxPoint as="offset" />
            <mxPoint x="-222" y="-52" as="sourcePoint" />
            <mxPoint x="-155.87" y="-52.16" as="targetPoint" />
          </mxGeometry>
        </mxCell>
        <mxCell id="L61zhgRRAvzZzF-HI6Hs-2" value="Do nothing" style="rounded=1;whiteSpace=wrap;html=1;fontSize=12;glass=0;strokeWidth=1;shadow=0;fontFamily=Lucida Console;fillColor=#f8cecc;strokeColor=#b85450;" parent="WIyWlLk6GJQsqaUBKTNV-1" vertex="1">
          <mxGeometry x="-170" y="-69.99000000000001" width="120" height="40" as="geometry" />
        </mxCell>
        <mxCell id="L61zhgRRAvzZzF-HI6Hs-4" value="No" style="edgeStyle=orthogonalEdgeStyle;rounded=0;html=1;jettySize=auto;orthogonalLoop=1;fontSize=11;endArrow=block;endFill=0;endSize=8;strokeWidth=1;shadow=0;labelBackgroundColor=none;fontFamily=Lucida Console;exitX=1;exitY=0.5;exitDx=0;exitDy=0;entryX=1;entryY=0.5;entryDx=0;entryDy=0;" parent="WIyWlLk6GJQsqaUBKTNV-1" source="e-dImMtRrVpYIfOJgrRO-30" target="OIr_SDyy3lZdY-E9c7T--19" edge="1">
          <mxGeometry y="10" relative="1" as="geometry">
            <mxPoint as="offset" />
            <mxPoint x="-200" y="660" as="sourcePoint" />
            <mxPoint x="-158.5699999999997" y="662.5" as="targetPoint" />
            <Array as="points">
              <mxPoint x="-159" y="663" />
              <mxPoint x="-159" y="470" />
            </Array>
          </mxGeometry>
        </mxCell>
        <mxCell id="NIv_Thovjby-iMn4ZX4f-2" value="The monitoring engine displays the check results of the passive checks" style="rounded=1;whiteSpace=wrap;html=1;fontSize=12;glass=0;strokeWidth=1;shadow=0;fontFamily=Lucida Console;fillColor=#fff2cc;strokeColor=#d6b656;" parent="WIyWlLk6GJQsqaUBKTNV-1" vertex="1">
          <mxGeometry x="-397.37" y="1180" width="150" height="61" as="geometry" />
        </mxCell>
        <mxCell id="NIv_Thovjby-iMn4ZX4f-3" value="" style="rounded=0;html=1;jettySize=auto;orthogonalLoop=1;fontSize=11;endArrow=block;endFill=0;endSize=8;strokeWidth=1;shadow=0;labelBackgroundColor=none;edgeStyle=orthogonalEdgeStyle;exitX=0.5;exitY=1;exitDx=0;exitDy=0;fontFamily=Lucida Console;entryX=0.5;entryY=0;entryDx=0;entryDy=0;" parent="WIyWlLk6GJQsqaUBKTNV-1" source="e-dImMtRrVpYIfOJgrRO-19" target="NIv_Thovjby-iMn4ZX4f-5" edge="1">
          <mxGeometry relative="1" as="geometry">
            <mxPoint x="-320" y="900" as="sourcePoint" />
            <mxPoint x="-320" y="970" as="targetPoint" />
            <Array as="points">
              <mxPoint x="-321" y="915" />
            </Array>
          </mxGeometry>
        </mxCell>
        <mxCell id="NIv_Thovjby-iMn4ZX4f-4" value="NRDP/NSCA/Icinga2 API" style="text;strokeColor=#6c8ebf;fillColor=#dae8fc;html=1;fontSize=24;fontStyle=1;verticalAlign=middle;align=center;fontFamily=Lucida Console;" parent="WIyWlLk6GJQsqaUBKTNV-1" vertex="1">
          <mxGeometry x="-790" y="1050" width="329.25" height="40" as="geometry" />
        </mxCell>
        <mxCell id="NIv_Thovjby-iMn4ZX4f-5" value="NRDP/NSCA/Icinga2 API receives the data and submits them to the monitoring engine as passive check results" style="rounded=1;whiteSpace=wrap;html=1;fontSize=12;glass=0;strokeWidth=1;shadow=0;fontFamily=Lucida Console;fillColor=#dae8fc;strokeColor=#6c8ebf;" parent="WIyWlLk6GJQsqaUBKTNV-1" vertex="1">
          <mxGeometry x="-413" y="1030" width="181.25" height="80" as="geometry" />
        </mxCell>
        <mxCell id="NIv_Thovjby-iMn4ZX4f-6" value="" style="rounded=0;html=1;jettySize=auto;orthogonalLoop=1;fontSize=11;endArrow=block;endFill=0;endSize=8;strokeWidth=1;shadow=0;labelBackgroundColor=none;edgeStyle=orthogonalEdgeStyle;fontFamily=Lucida Console;entryX=0.5;entryY=0;entryDx=0;entryDy=0;exitX=0.5;exitY=1;exitDx=0;exitDy=0;" parent="WIyWlLk6GJQsqaUBKTNV-1" source="NIv_Thovjby-iMn4ZX4f-5" target="NIv_Thovjby-iMn4ZX4f-2" edge="1">
          <mxGeometry relative="1" as="geometry">
            <mxPoint x="-321" y="1070" as="sourcePoint" />
            <mxPoint x="-318.75" y="1235" as="targetPoint" />
            <Array as="points">
              <mxPoint x="-322" y="1130" />
              <mxPoint x="-322" y="1130" />
            </Array>
          </mxGeometry>
        </mxCell>
        <mxCell id="NIv_Thovjby-iMn4ZX4f-13" value="&lt;div&gt;Monitoring engine&lt;br&gt;&lt;/div&gt;&lt;div&gt;(passive checks)&lt;br&gt;&lt;/div&gt;" style="text;strokeColor=#9673a6;fillColor=#e1d5e7;html=1;fontSize=24;fontStyle=1;verticalAlign=middle;align=center;fontFamily=Lucida Console;" parent="WIyWlLk6GJQsqaUBKTNV-1" vertex="1">
          <mxGeometry x="-1090" y="960" width="270" height="70" as="geometry" />
        </mxCell>
        <mxCell id="NIv_Thovjby-iMn4ZX4f-14" value="&lt;div&gt;Monitoring engine&lt;br&gt;&lt;/div&gt;&lt;div&gt;(active checks)&lt;br&gt;&lt;/div&gt;" style="text;strokeColor=#666666;fillColor=#f5f5f5;html=1;fontSize=24;fontStyle=1;verticalAlign=middle;align=center;fontFamily=Lucida Console;fontColor=#333333;" parent="WIyWlLk6GJQsqaUBKTNV-1" vertex="1">
          <mxGeometry x="-1090" y="-310" width="270" height="70" as="geometry" />
        </mxCell>
        <mxCell id="kKwzolA-PjVbmx8sha9L-0" value="Monitoring Engine" style="text;strokeColor=#d6b656;fillColor=#fff2cc;html=1;fontSize=24;fontStyle=1;verticalAlign=middle;align=center;fontFamily=Lucida Console;" parent="WIyWlLk6GJQsqaUBKTNV-1" vertex="1">
          <mxGeometry x="-760.37" y="1190.5" width="270" height="40" as="geometry" />
        </mxCell>
      </root>
    </mxGraphModel>
  </diagram>
</mxfile>
